<svg width="110" height="54" viewBox="0 0 110 54" fill="none" xmlns="http://www.w3.org/2000/svg">
<rect width="110" height="54" rx="8" fill="url(#paint0_linear)"/>
<path d="M38.28 23.324V32H37.452C37.324 32 37.216 31.98 37.128 31.94C37.044 31.896 36.962 31.824 36.882 31.724L32.352 25.94C32.376 26.204 32.388 26.448 32.388 26.672V32H30.966V23.324H31.812C31.88 23.324 31.938 23.328 31.986 23.336C32.038 23.34 32.082 23.352 32.118 23.372C32.158 23.388 32.196 23.414 32.232 23.45C32.268 23.482 32.308 23.526 32.352 23.582L36.9 29.39C36.888 29.25 36.878 29.112 36.87 28.976C36.862 28.84 36.858 28.714 36.858 28.598V23.324H38.28ZM52.1881 23.918C52.1881 24.102 52.1361 24.27 52.0321 24.422L47.5801 30.71H52.0861V32H45.4861V31.364C45.4861 31.284 45.5001 31.208 45.5281 31.136C45.5561 31.06 45.5921 30.99 45.6361 30.926L50.1001 24.608H45.7681V23.324H52.1881V23.918ZM66.5277 32H64.9197C64.8077 32 64.7177 31.972 64.6497 31.916C64.5857 31.86 64.5337 31.796 64.4937 31.724L62.4837 28.394C62.4517 28.494 62.4137 28.58 62.3697 28.652L60.4437 31.724C60.3957 31.792 60.3397 31.856 60.2757 31.916C60.2157 31.972 60.1357 32 60.0357 32H58.5297L61.4097 27.536L58.6437 23.324H60.2517C60.3637 23.324 60.4437 23.34 60.4917 23.372C60.5437 23.4 60.5917 23.448 60.6357 23.516L62.6097 26.696C62.6497 26.596 62.6977 26.496 62.7537 26.396L64.5657 23.546C64.6097 23.47 64.6577 23.414 64.7097 23.378C64.7617 23.342 64.8277 23.324 64.9077 23.324H66.4497L63.6597 27.47L66.5277 32ZM79.5885 24.65H76.9725V32H75.3585V24.65H72.7425V23.324H79.5885V24.65Z" fill="black"/>
<defs>
<linearGradient id="paint0_linear" x1="31" y1="8.5" x2="110" y2="54" gradientUnits="userSpaceOnUse">
<stop stop-color="#C6EEFF"/>
<stop offset="0.567708" stop-color="#BEE8E5"/>
</linearGradient>
</defs>
</svg>
