<svg width="92" height="92" viewBox="0 0 92 92" fill="none" xmlns="http://www.w3.org/2000/svg">
<rect width="92" height="92" rx="8" fill="url(#paint0_linear)" style="mix-blend-mode:color-burn"/>
<path d="M60.1834 29.296V64H56.8714C56.3594 64 55.9274 63.92 55.5754 63.76C55.2394 63.584 54.9114 63.296 54.5914 62.896L36.4714 39.76C36.5674 40.816 36.6154 41.792 36.6154 42.688V64H30.9274V29.296H34.3114C34.5834 29.296 34.8154 29.312 35.0074 29.344C35.2154 29.36 35.3914 29.408 35.5354 29.488C35.6954 29.552 35.8474 29.656 35.9914 29.8C36.1354 29.928 36.2954 30.104 36.4714 30.328L54.6634 53.56C54.6154 53 54.5754 52.448 54.5434 51.904C54.5114 51.36 54.4954 50.856 54.4954 50.392V29.296H60.1834Z" fill="white"/>
<defs>
<linearGradient id="paint0_linear" x1="40.9818" y1="30.6667" x2="104.443" y2="49.0523" gradientUnits="userSpaceOnUse">
<stop stop-color="#002433"/>
<stop offset="0.494792" stop-color="#002D2A"/>
</linearGradient>
</defs>
</svg>
